<svg xmlns="http://www.w3.org/2000/svg" xml:space="preserve" width="1500" height="173" viewBox="0 0 1500 173" data-version="1" data-id="lg_GwrIcSDk1sY8K9QFZi"><g id="outer-wrapper" data-padding="20" transform="matrix(1,0,0,1,0,0)"><g id="inner-wrapper" transform="matrix(0.964221824686941,0,0,0.964221824686941,10,3.094812164579608)"><rect width="449.254" height="122.04" x="142.83125602968454" y="-374.67499999999995" fill="none" rx="0" ry="0" transform="translate(399.41 396.4)"></rect><path fill="#fbfbfb" d="M547.3982560296845 116.67500000000001H593.5882560296844L594.1182560296845 95.57499999999999H592.0082560296845L590.2182560296844 102.64499999999998Q587.6882560296845 112.34499999999997 581.7782560296845 113.71499999999997Q580.5082560296845 113.92499999999995 579.3482560296844 113.92499999999995H564.8982560296845V56.134999999999934H573.7582560296845V53.394999999999925H547.3982560296845V56.134999999999934H555.8282560296844V113.92499999999995H547.3982560296845ZM649.4782560296844 114.03500000000003H644.2082560296844V71.84500000000003H627.6482560296845V74.48500000000001H636.2982560296845V97.26499999999999Q636.2982560296845 106.755 629.6482560296845 111.185Q626.6982560296844 113.195 623.5382560296845 113.195Q614.8882560296845 113.195 613.5182560296845 104.33499999999998Q613.2982560296845 102.85499999999996 613.2982560296845 101.16499999999996V71.84500000000003H597.2682560296845V74.48500000000001H605.3882560296845V99.58500000000004Q605.4982560296845 117.62500000000006 620.4782560296844 117.72500000000002Q628.3882560296845 117.72500000000002 633.4482560296844 111.29500000000002Q635.3482560296845 108.86500000000001 636.5082560296845 105.91500000000002L637.2482560296845 116.67500000000001H652.1182560296845Q652.1182560296845 114.35500000000002 650.5382560296846 114.14500000000004Q650.1082560296845 114.03500000000003 649.4782560296845 114.03500000000003M678.7082560296845 114.03500000000003H673.9582560296845V91.255Q674.2782560296846 81.97500000000002 680.3882560296845 77.435Q683.2382560296846 75.32499999999999 686.0882560296845 75.32499999999999Q691.3582560296845 75.32499999999999 693.3682560296845 81.125Q694.2082560296844 83.65499999999997 694.2082560296844 86.82499999999999V107.70499999999998Q694.2082560296844 112.555 691.8882560296845 113.505Q690.4082560296845 114.03499999999997 686.8282560296846 114.03499999999997V116.67499999999995H709.4982560296845Q709.4982560296845 114.35499999999996 707.9182560296845 114.14499999999998Q707.4982560296845 114.03499999999997 706.8682560296845 114.03499999999997H702.1182560296845V87.03499999999997Q703.8082560296846 79.33499999999998 709.6082560296845 76.27499999999998Q711.8182560296846 75.22499999999997 713.8282560296846 75.22499999999997Q719.2082560296845 75.22499999999997 721.4182560296845 80.81499999999994Q722.4782560296845 83.44499999999994 722.4782560296845 86.82499999999993V107.70499999999993Q722.4782560296845 112.55499999999995 720.1482560296845 113.50499999999994Q718.6782560296845 114.03499999999991 715.0882560296845 114.03499999999991V116.6749999999999H738.3982560296845Q738.3982560296845 114.3549999999999 736.8182560296846 114.14499999999992Q736.3982560296845 114.03499999999991 735.7582560296846 114.03499999999991H730.3882560296845V87.87499999999989Q730.3882560296845 77.01499999999987 723.3182560296846 72.69499999999988Q720.1482560296845 70.7949999999999 716.4582560296845 70.7949999999999Q708.4482560296846 70.7949999999999 703.5982560296845 78.28499999999991Q702.3282560296846 80.1749999999999 701.4882560296845 82.28499999999991Q699.5882560296845 73.95499999999993 693.1482560296845 71.53499999999991Q691.2582560296846 70.7949999999999 689.2482560296846 70.7949999999999Q681.6582560296846 70.7949999999999 676.6982560296846 77.22499999999991Q674.9082560296845 79.5449999999999 673.8482560296845 82.39499999999992L673.4282560296845 71.84499999999991H658.1382560296845V74.4849999999999H666.0482560296846V107.70499999999993Q666.0482560296846 112.55499999999995 663.3082560296846 113.50499999999994Q661.7282560296845 114.03499999999991 658.1382560296845 114.03499999999991V116.6749999999999H681.3382560296845Q681.3382560296845 114.45499999999987 679.7582560296845 114.14499999999992Q679.2282560296845 114.03499999999991 678.7082560296844 114.03499999999991M767.2982560296846 73.43499999999989Q774.6782560296845 73.43499999999989 777.1082560296845 79.6649999999999Q777.9482560296844 81.6649999999999 777.9482560296844 83.9849999999999Q777.9482560296844 89.25499999999988 772.8882560296845 90.4149999999999Q770.2482560296845 90.94499999999988 765.3982560296845 90.84499999999991L754.2182560296844 90.52499999999992Q754.7482560296844 78.39499999999992 762.1282560296845 74.70499999999993Q764.5582560296846 73.43499999999995 767.2982560296846 73.43499999999995M785.6482560296845 106.55499999999995L783.0082560296846 105.60499999999996Q779.3182560296846 113.62499999999994 771.0982560296845 114.67499999999995Q770.0382560296846 114.78499999999997 769.0882560296845 114.78499999999997Q758.0182560296846 114.78499999999997 755.1682560296845 101.59499999999997Q754.3282560296846 97.90499999999997 754.2182560296845 93.47499999999997L766.8782560296845 93.68499999999995Q779.7382560296846 93.90499999999997 783.4382560296846 91.26499999999993Q786.2782560296846 89.15499999999992 786.2782560296846 85.25499999999994Q786.2782560296846 78.07499999999993 779.0082560296846 73.86499999999995Q773.8382560296845 70.80499999999995 767.0882560296845 70.80499999999995Q753.8982560296845 70.80499999999995 748.2082560296845 81.77499999999998Q745.2582560296846 87.46499999999997 745.2582560296846 94.63499999999999Q745.2582560296846 107.71499999999997 754.6382560296845 114.04500000000002Q760.2282560296845 117.73500000000001 767.3982560296845 117.73500000000001Q778.7982560296846 117.73500000000001 784.1682560296845 109.505Q785.0182560296846 108.03499999999997 785.6482560296845 106.555M813.7082560296845 114.03500000000003H808.9582560296845V91.255Q809.2782560296846 81.445 815.9182560296845 77.125Q818.7682560296846 75.32499999999999 821.7182560296845 75.32499999999999Q828.1482560296845 75.32499999999999 830.4782560296845 81.33499999999998Q831.4182560296845 83.76499999999999 831.4182560296845 86.82499999999999V107.70499999999998Q831.4182560296845 112.555 828.6782560296845 113.505Q827.0982560296845 114.03499999999997 823.5082560296845 114.03499999999997V116.67499999999995H847.2382560296845Q847.2382560296845 114.35499999999996 845.6582560296845 114.14499999999998Q845.2382560296845 114.03499999999997 844.6082560296845 114.03499999999997H839.3282560296846V87.87499999999994Q839.3282560296846 77.33499999999992 832.0582560296846 72.79499999999996Q828.6782560296846 70.79499999999996 824.7782560296846 70.79499999999996Q816.9782560296846 70.79499999999996 811.9082560296846 77.01499999999999Q810.0082560296846 79.445 808.8482560296845 82.39499999999998L808.4282560296846 71.84499999999997H793.1382560296845V74.48499999999996H801.0482560296846V107.70499999999993Q801.0482560296846 112.55499999999995 798.3082560296846 113.50499999999994Q796.7282560296846 114.03499999999991 793.1382560296845 114.03499999999991V116.6749999999999H816.3382560296845Q816.3382560296845 114.3549999999999 814.7582560296846 114.14499999999992Q814.3382560296845 114.03499999999991 813.7082560296845 114.03499999999991M854.6282560296845 93.37499999999989L892.3882560296845 108.56499999999988L893.8582560296845 105.18499999999989L860.5282560296846 91.7949999999999L893.8582560296845 78.2949999999999L892.5982560296845 75.2349999999999L854.6282560296845 90.4149999999999ZM898.5982560296845 133.01499999999987H904.9282560296847L940.8882560296847 41.784999999999854H934.5582560296846ZM985.9382560296847 90.41499999999985L948.1782560296847 75.23499999999984L946.6982560296847 78.60499999999985L980.0282560296846 92.00499999999982L946.6982560296847 105.50499999999982L947.9682560296847 108.56499999999983L985.9382560296847 93.37499999999983Z "></path><rect width="248.762" height="23.73" x="243.0772560296845" y="-325.52" fill="none" rx="0" ry="0" transform="translate(399.86 474.62)"></rect><path fill="#fbfbfb" d="M656.7082560296845 167.56500000000005H656.8682560296845L660.9282560296846 155.79500000000007H661.9582560296845V155.2650000000001H658.6282560296845V155.79500000000007H660.2682560296846L657.0482560296846 165.47500000000008L653.7482560296845 155.79500000000007H655.4082560296845V155.2650000000001H651.8882560296845L653.2782560296846 159.1950000000001L651.1282560296845 165.43500000000012L647.6582560296845 155.79500000000013H649.3182560296846V155.26500000000016H644.8082560296846V155.79500000000013H646.0182560296846L649.7982560296846 166.33500000000015Q650.2082560296845 167.50500000000017 650.5282560296846 167.62500000000017Q650.6582560296845 167.6650000000002 650.7782560296846 167.6650000000002H650.9382560296846L653.6082560296845 160.1450000000002L655.7982560296846 166.3350000000002Q656.1682560296846 167.38500000000022 656.3982560296846 167.50500000000022Q656.5182560296846 167.56500000000023 656.7082560296847 167.56500000000023M666.7082560296847 167.04500000000024H665.6882560296847V162.61500000000024Q665.6882560296847 160.74500000000023 666.9782560296846 159.90500000000026Q667.5082560296846 159.55500000000023 668.0882560296847 159.55500000000023Q669.3382560296847 159.55500000000023 669.8282560296847 160.72500000000025Q670.0582560296847 161.28500000000025 670.0582560296847 161.95500000000027V165.81500000000028Q670.0582560296847 166.75500000000028 669.6082560296848 166.94500000000028Q669.3182560296847 167.0450000000003 668.6182560296847 167.0450000000003V167.5550000000003H673.1282560296847Q673.1282560296847 167.1050000000003 672.8282560296847 167.06500000000028Q672.7382560296846 167.0450000000003 672.6182560296847 167.0450000000003H671.5882560296848V161.95500000000033Q671.5882560296848 159.7250000000003 670.1182560296847 158.92500000000035Q669.5382560296847 158.63500000000033 668.8882560296847 158.63500000000033Q667.3682560296847 158.63500000000033 666.3382560296847 159.74500000000035Q665.9082560296847 160.21500000000037 665.6882560296847 160.80500000000035V154.22500000000036H662.6082560296848V154.73500000000035H664.1482560296847V165.81500000000034Q664.1482560296847 166.75500000000034 663.6182560296847 166.94500000000033Q663.3082560296848 167.04500000000036 662.6082560296848 167.04500000000036V167.55500000000035H667.2282560296848Q667.2282560296848 167.10500000000036 666.9182560296847 167.06500000000034Q666.8382560296848 167.04500000000036 666.7082560296848 167.04500000000036M678.7782560296848 159.14500000000038Q680.2182560296848 159.14500000000038 680.6882560296848 160.35500000000036Q680.8482560296848 160.74500000000035 680.8482560296848 161.19500000000033Q680.8482560296848 162.2250000000003 679.8682560296847 162.45500000000033Q679.3582560296848 162.55500000000035 678.4082560296848 162.5350000000003L676.2382560296849 162.4750000000003Q676.3382560296848 160.1150000000003 677.7782560296848 159.39500000000032Q678.2482560296849 159.14500000000032 678.7782560296848 159.14500000000032M682.3482560296848 165.58500000000032L681.8382560296848 165.4050000000003Q681.1182560296847 166.96500000000032 679.5182560296848 167.1650000000003Q679.3182560296848 167.1850000000003 679.1282560296848 167.1850000000003Q676.9782560296849 167.1850000000003 676.4182560296849 164.62500000000028Q676.2582560296848 163.90500000000026 676.2382560296849 163.0450000000003L678.6982560296849 163.08500000000032Q681.1982560296849 163.12500000000034 681.9182560296849 162.6150000000003Q682.4682560296849 162.20500000000027 682.4682560296849 161.44500000000028Q682.4682560296849 160.0550000000003 681.0582560296848 159.2350000000003Q680.0482560296848 158.63500000000028 678.7382560296849 158.63500000000028Q676.1782560296849 158.63500000000028 675.0682560296848 160.76500000000027Q674.4982560296849 161.87500000000028 674.4982560296849 163.27500000000026Q674.4982560296849 165.81500000000028 676.3182560296848 167.04500000000024Q677.4082560296848 167.76500000000027 678.7982560296848 167.76500000000027Q681.0182560296848 167.76500000000027 682.0582560296848 166.16500000000025Q682.2282560296849 165.87500000000023 682.3482560296849 165.58500000000026M688.388256029685 167.0550000000003H686.9082560296849V162.9750000000003Q686.9082560296849 161.1050000000003 688.0582560296848 159.9750000000003Q688.5082560296848 159.5450000000003 688.8182560296848 159.52500000000032Q689.1682560296849 159.52500000000032 689.4582560296849 160.0450000000003Q689.7882560296848 160.6150000000003 690.0682560296848 160.69500000000028Q690.1982560296849 160.7350000000003 690.3182560296848 160.7350000000003Q690.9282560296849 160.7350000000003 691.0982560296848 160.14500000000032Q691.1382560296848 160.01500000000033 691.1382560296848 159.89500000000032Q691.1382560296848 158.9750000000003 690.1982560296849 158.76500000000033Q689.9882560296849 158.7250000000003 689.8082560296848 158.7250000000003Q688.5782560296848 158.7250000000003 687.6082560296849 159.77500000000032Q687.1582560296849 160.26500000000033 686.8882560296848 160.88500000000033L686.8082560296848 158.85500000000036H683.8382560296848V159.36500000000035H685.3782560296848V165.82500000000033Q685.3782560296848 166.76500000000033 684.8382560296848 166.95500000000033Q684.5382560296848 167.05500000000035 683.8382560296848 167.05500000000035V167.56500000000034H688.8982560296848Q688.8982560296848 167.11500000000035 688.5982560296848 167.07500000000033Q688.5082560296848 167.05500000000035 688.3882560296848 167.05500000000035M696.3482560296848 159.14500000000032Q697.7782560296848 159.14500000000032 698.2582560296848 160.3550000000003Q698.4182560296849 160.7450000000003 698.4182560296849 161.19500000000028Q698.4182560296849 162.22500000000025 697.4282560296849 162.45500000000027Q696.9182560296849 162.5550000000003 695.9782560296849 162.53500000000025L693.7982560296848 162.47500000000025Q693.9082560296849 160.11500000000024 695.3382560296849 159.39500000000027Q695.8082560296849 159.14500000000027 696.3482560296849 159.14500000000027M699.9182560296849 165.58500000000026L699.398256029685 165.40500000000026Q698.6882560296849 166.96500000000026 697.0882560296849 167.16500000000025Q696.878256029685 167.18500000000023 696.6982560296849 167.18500000000023Q694.5382560296848 167.18500000000023 693.9882560296849 164.62500000000023Q693.8282560296849 163.9050000000002 693.7982560296849 163.04500000000024L696.268256029685 163.08500000000026Q698.768256029685 163.12500000000028 699.488256029685 162.61500000000024Q700.038256029685 162.2050000000002 700.038256029685 161.44500000000022Q700.038256029685 160.05500000000023 698.618256029685 159.23500000000024Q697.618256029685 158.63500000000022 696.308256029685 158.63500000000022Q693.738256029685 158.63500000000022 692.638256029685 160.7650000000002Q692.058256029685 161.87500000000023 692.058256029685 163.2750000000002Q692.058256029685 165.81500000000023 693.888256029685 167.0450000000002Q694.9682560296849 167.7650000000002 696.368256029685 167.7650000000002Q698.578256029685 167.7650000000002 699.628256029685 166.1650000000002Q699.788256029685 165.87500000000017 699.9182560296849 165.5850000000002M705.578256029685 167.56500000000023H710.598256029685Q710.598256029685 167.11500000000024 710.2682560296851 167.05500000000023Q710.1682560296849 167.03500000000025 710.068256029685 167.03500000000025H708.9782560296851V155.79500000000024H710.598256029685V155.26500000000027H705.578256029685V155.79500000000024H707.2182560296851V167.03500000000025H705.578256029685ZM719.068256029685 165.3950000000002L719.2282560296851 167.56500000000023H722.168256029685Q722.168256029685 167.11500000000024 721.858256029685 167.07500000000022Q721.778256029685 167.05500000000023 721.6482560296851 167.05500000000023H720.6282560296851L720.588256029685 154.23500000000024H717.098256029685V154.74500000000023H719.048256029685V159.75500000000022Q718.048256029685 158.6450000000002 716.338256029685 158.6450000000002Q714.088256029685 158.6450000000002 712.9382560296851 160.6550000000002Q712.2382560296851 161.88500000000022 712.2382560296851 163.42500000000018Q712.2382560296851 165.9650000000002 713.8382560296851 167.13500000000016Q714.7382560296851 167.77500000000015 715.8282560296851 167.77500000000015Q718.0682560296851 167.73500000000013 719.0682560296851 165.39500000000015M713.9782560296851 163.17500000000013Q713.9782560296851 160.28500000000014 715.5382560296852 159.42500000000013Q716.0382560296852 159.15500000000014 716.6282560296852 159.15500000000014Q718.1282560296852 159.15500000000014 718.7582560296851 160.75500000000017Q719.1082560296852 161.61500000000018 719.1082560296852 162.78500000000014Q719.1082560296852 165.24500000000012 717.8782560296852 166.35500000000013Q717.2182560296851 166.95500000000015 716.3782560296852 166.95500000000015Q714.6982560296851 166.95500000000015 714.1882560296851 164.90500000000014Q713.9782560296851 164.14500000000015 713.9782560296851 163.17500000000013M727.7682560296852 159.14500000000015Q729.1982560296851 159.14500000000015 729.6682560296852 160.35500000000013Q729.8382560296852 160.74500000000012 729.8382560296852 161.1950000000001Q729.8382560296852 162.22500000000008 728.8482560296852 162.4550000000001Q728.3382560296852 162.55500000000012 727.3982560296852 162.53500000000008L725.2182560296851 162.47500000000008Q725.3282560296852 160.11500000000007 726.7582560296852 159.3950000000001Q727.2282560296852 159.1450000000001 727.7682560296852 159.1450000000001M731.3282560296852 165.5850000000001L730.8182560296852 165.4050000000001Q730.0982560296852 166.9650000000001 728.4982560296852 167.16500000000008Q728.2982560296853 167.18500000000006 728.1082560296852 167.18500000000006Q725.9582560296852 167.18500000000006 725.4082560296852 164.62500000000006Q725.2382560296852 163.90500000000003 725.2182560296852 163.04500000000007L727.6782560296851 163.0850000000001Q730.1882560296851 163.1250000000001 730.8982560296852 162.61500000000007Q731.4582560296852 162.20500000000004 731.4582560296852 161.44500000000005Q731.4582560296852 160.05500000000006 730.0382560296853 159.23500000000007Q729.0382560296853 158.63500000000005 727.7182560296852 158.63500000000005Q725.1582560296852 158.63500000000005 724.0482560296853 160.76500000000004Q723.4782560296852 161.87500000000006 723.4782560296852 163.27500000000003Q723.4782560296852 165.81500000000005 725.2982560296853 167.04500000000002Q726.3882560296852 167.76500000000004 727.7882560296853 167.76500000000004Q729.9982560296852 167.76500000000004 731.0482560296853 166.16500000000002Q731.2082560296852 165.875 731.3282560296852 165.58500000000004M740.1882560296851 167.76500000000004Q741.7682560296852 167.76500000000004 741.9382560296851 165.85500000000002Q741.9582560296851 165.735 741.9582560296851 165.625L741.4182560296852 165.60500000000002Q741.2782560296852 167.10500000000002 740.6182560296852 167.125Q740.0882560296852 167.08499999999998 740.0682560296851 166.055V161.735Q740.0682560296851 158.79500000000002 737.1382560296852 158.635H736.7682560296851Q734.4682560296851 158.635 733.6882560296851 159.70499999999998Q733.4482560296851 160.055 733.4482560296851 160.39499999999998Q733.4482560296851 161.03499999999997 734.038256029685 161.135Q734.1382560296852 161.15499999999997 734.2482560296851 161.15499999999997Q734.7182560296851 161.15499999999997 734.9382560296851 160.565Q735.2282560296851 159.805 735.328256029685 159.66500000000002Q735.7182560296851 159.14500000000004 736.538256029685 159.14500000000004Q738.4682560296851 159.27500000000003 738.528256029685 161.26500000000004V162.55500000000006Q733.7082560296851 162.55500000000006 733.0182560296851 164.56500000000005Q732.8882560296851 164.95500000000004 732.8882560296851 165.40500000000003Q732.8882560296851 166.96500000000003 734.2682560296851 167.53500000000003Q734.818256029685 167.76500000000004 735.4382560296851 167.76500000000004Q736.9282560296851 167.76500000000004 737.9582560296851 166.73500000000007Q738.328256029685 166.34500000000008 738.5082560296851 165.91500000000008Q738.7582560296851 167.74500000000006 740.1882560296851 167.7650000000001M736.1082560296851 166.9450000000001Q734.8582560296851 166.9450000000001 734.568256029685 165.6950000000001Q734.5082560296851 165.4050000000001 734.5082560296851 165.05500000000012Q734.5082560296851 163.68500000000012 736.088256029685 163.3150000000001Q736.928256029685 163.1250000000001 738.528256029685 163.10500000000013V164.74500000000012Q738.2182560296851 166.16500000000013 737.038256029685 166.73500000000013Q736.558256029685 166.9450000000001 736.108256029685 166.9450000000001M745.9582560296851 167.2050000000001Q747.3682560296851 167.2050000000001 747.858256029685 166.34500000000008Q748.048256029685 166.03500000000008 748.048256029685 165.67500000000007Q748.048256029685 164.80500000000006 746.798256029685 164.19500000000005Q746.528256029685 164.04500000000007 745.918256029685 163.78500000000003Q744.2282560296851 163.08500000000004 743.678256029685 162.47500000000002Q743.088256029685 161.79500000000002 743.088256029685 160.89500000000004Q743.088256029685 159.47500000000002 744.6382560296851 158.90500000000003Q745.3582560296851 158.63500000000005 746.1982560296851 158.63500000000005Q747.558256029685 158.63500000000005 748.538256029685 159.21500000000003Q748.538256029685 158.615 748.828256029685 158.53500000000003Q748.9482560296851 158.51500000000004 749.088256029685 158.51500000000004V161.07500000000005H748.558256029685Q748.5182560296851 159.18500000000006 746.4682560296851 159.16500000000002Q744.9282560296851 159.16500000000002 744.558256029685 160.07500000000005Q744.4582560296851 160.31500000000005 744.4582560296851 160.58500000000004Q744.4582560296851 161.46500000000003 745.7282560296851 162.08500000000004Q746.0182560296851 162.22500000000002 746.628256029685 162.47500000000002Q748.288256029685 163.14500000000004 748.848256029685 163.76500000000004Q749.438256029685 164.41500000000002 749.438256029685 165.32500000000005Q749.438256029685 166.98500000000007 747.678256029685 167.53500000000003Q746.9982560296851 167.76500000000004 746.198256029685 167.76500000000004Q744.728256029685 167.74500000000006 743.638256029685 167.02500000000003Q743.638256029685 167.555 743.368256029685 167.63500000000005Q743.2482560296851 167.65500000000003 743.088256029685 167.65500000000003V164.54500000000002H743.658256029685Q743.6982560296851 167.185 745.9582560296851 167.20500000000004M764.2282560296851 164.34500000000003Q764.2282560296851 162.52500000000003 762.2582560296851 161.41500000000002Q761.868256029685 161.20500000000004 759.858256029685 160.32500000000005Q758.038256029685 159.54500000000007 757.558256029685 158.72500000000002Q757.318256029685 158.27500000000003 757.318256029685 157.76500000000004Q757.318256029685 156.39500000000004 758.648256029685 155.85500000000002Q759.218256029685 155.635 759.9182560296849 155.635Q761.638256029685 155.635 762.548256029685 156.805Q763.138256029685 157.60500000000002 763.118256029685 158.745H763.738256029685V155.15500000000003Q763.238256029685 155.15500000000003 763.1582560296849 155.46500000000003Q763.118256029685 155.615 763.118256029685 155.85500000000002Q761.6682560296849 155.055 759.838256029685 155.055Q757.628256029685 155.055 756.388256029685 156.28500000000003Q755.568256029685 157.14500000000004 755.568256029685 158.29500000000002Q755.568256029685 160.01500000000004 757.4982560296851 161.10500000000002Q757.848256029685 161.29500000000002 759.838256029685 162.15500000000003Q761.688256029685 162.97500000000002 762.1782560296849 163.81500000000005Q762.4382560296849 164.28500000000008 762.4382560296849 164.83500000000004Q762.4382560296849 166.27500000000003 761.048256029685 166.91500000000002Q760.388256029685 167.195 759.588256029685 167.195Q756.458256029685 167.15499999999997 756.108256029685 163.365H755.488256029685V167.60500000000002Q755.978256029685 167.60500000000002 756.068256029685 167.32500000000005Q756.108256029685 167.15500000000003 756.108256029685 166.72500000000002Q757.6882560296849 167.77500000000003 759.6982560296849 167.77500000000003Q762.048256029685 167.77500000000003 763.348256029685 166.50500000000005Q764.2282560296849 165.59500000000003 764.2282560296849 164.34500000000003M770.0082560296848 167.04500000000002H768.9882560296849V162.615Q768.9882560296849 160.745 770.2782560296849 159.90500000000003Q770.8082560296849 159.555 771.388256029685 159.555Q772.638256029685 159.555 773.128256029685 160.72500000000002Q773.348256029685 161.28500000000003 773.348256029685 161.95500000000004V165.81500000000005Q773.348256029685 166.75500000000005 772.898256029685 166.94500000000005Q772.618256029685 167.04500000000007 771.9182560296849 167.04500000000007V167.55500000000006H776.4282560296849Q776.4282560296849 167.10500000000008 776.118256029685 167.06500000000005Q776.038256029685 167.04500000000007 775.9182560296849 167.04500000000007H774.888256029685V161.9550000000001Q774.888256029685 159.72500000000008 773.4182560296849 158.92500000000013Q772.838256029685 158.6350000000001 772.1882560296849 158.6350000000001Q770.6682560296849 158.6350000000001 769.638256029685 159.74500000000012Q769.2082560296849 160.21500000000015 768.988256029685 160.80500000000012V154.22500000000014H765.9082560296849V154.73500000000013H767.448256029685V165.8150000000001Q767.448256029685 166.7550000000001 766.918256029685 166.9450000000001Q766.608256029685 167.04500000000013 765.908256029685 167.04500000000013V167.55500000000012H770.5182560296851Q770.5182560296851 167.10500000000013 770.2182560296851 167.0650000000001Q770.1282560296851 167.04500000000013 770.0082560296851 167.04500000000013M781.778256029685 167.05500000000012H780.7582560296851V158.85500000000013H777.578256029685V159.36500000000012H779.2182560296851V165.8250000000001Q779.2182560296851 166.7650000000001 778.578256029685 166.97500000000008Q778.278256029685 167.05500000000006 777.578256029685 167.05500000000006V167.56500000000005H782.298256029685Q782.298256029685 167.11500000000007 781.9882560296851 167.07500000000005Q781.8882560296851 167.05500000000006 781.778256029685 167.05500000000006M780.9982560296851 155.85500000000008Q780.9982560296851 155.13500000000005 780.3682560296852 154.8350000000001Q780.1182560296852 154.72500000000008 779.8982560296852 154.72500000000008Q779.1782560296851 154.72500000000008 778.8682560296852 155.3850000000001Q778.7682560296851 155.61500000000012 778.7682560296851 155.85500000000013Q778.7682560296851 156.61500000000012 779.4482560296851 156.90500000000014Q779.6682560296852 156.98500000000013 779.8982560296852 156.98500000000013Q780.6082560296851 156.98500000000013 780.8982560296852 156.3250000000001Q780.9982560296851 156.10500000000008 780.9982560296851 155.85500000000008M787.528256029685 167.05500000000006H786.5982560296851V162.62500000000006Q786.6582560296852 160.71500000000003 787.9582560296851 159.87500000000006Q788.5082560296851 159.52500000000003 789.0782560296851 159.52500000000003Q790.3382560296851 159.52500000000003 790.788256029685 160.69500000000005Q790.9682560296851 161.16500000000008 790.9682560296851 161.76500000000004V165.82500000000005Q790.9682560296851 166.76500000000004 790.4382560296851 166.95500000000004Q790.1282560296852 167.05500000000006 789.4282560296851 167.05500000000006V167.56500000000005H794.0482560296851Q794.0482560296851 167.11500000000007 793.7382560296851 167.07500000000005Q793.6582560296852 167.05500000000006 793.5282560296852 167.05500000000006H792.5082560296852V161.9650000000001Q792.5082560296852 159.91500000000008 791.0882560296852 159.03500000000008Q790.4382560296851 158.6450000000001 789.6782560296851 158.6450000000001Q788.1582560296852 158.6450000000001 787.1782560296851 159.85500000000008Q786.8082560296851 160.3250000000001 786.5782560296851 160.9050000000001L786.4982560296851 158.85500000000008H783.528256029685V159.36500000000007H785.058256029685V165.82500000000005Q785.058256029685 166.76500000000004 784.528256029685 166.95500000000004Q784.2182560296851 167.05500000000006 783.528256029685 167.05500000000006V167.56500000000005H788.038256029685Q788.038256029685 167.11500000000007 787.7282560296851 167.07500000000005Q787.6482560296852 167.05500000000006 787.528256029685 167.05500000000006M799.6682560296852 159.14500000000004Q801.0982560296851 159.14500000000004 801.568256029685 160.35500000000002Q801.7382560296851 160.745 801.7382560296851 161.195Q801.7382560296851 162.22499999999997 800.7482560296851 162.45499999999998Q800.2382560296851 162.555 799.298256029685 162.53499999999997L797.1182560296851 162.47499999999997Q797.2282560296851 160.11499999999995 798.6582560296852 159.39499999999998Q799.1282560296852 159.14499999999998 799.6682560296852 159.14499999999998M803.2282560296851 165.58499999999998L802.7182560296851 165.40499999999997Q801.9982560296851 166.96499999999997 800.3982560296852 167.16499999999996Q800.1982560296851 167.18499999999995 800.0082560296851 167.18499999999995Q797.8582560296852 167.18499999999995 797.3082560296851 164.62499999999994Q797.1382560296852 163.90499999999992 797.1182560296852 163.04499999999996L799.5782560296851 163.08499999999998Q802.0882560296851 163.125 802.7982560296851 162.61499999999995Q803.3582560296852 162.20499999999993 803.3582560296852 161.44499999999994Q803.3582560296852 160.05499999999995 801.9382560296851 159.23499999999996Q800.9382560296851 158.63499999999993 799.6282560296852 158.63499999999993Q797.0582560296851 158.63499999999993 795.9482560296851 160.76499999999993Q795.3782560296852 161.87499999999994 795.3782560296852 163.27499999999992Q795.3782560296852 165.81499999999994 797.2082560296851 167.0449999999999Q798.288256029685 167.76499999999993 799.6882560296851 167.76499999999993Q801.8982560296852 167.76499999999993 802.9482560296851 166.1649999999999Q803.1082560296852 165.8749999999999 803.2282560296851 165.58499999999992M811.0882560296851 167.56499999999994H816.7282560296851Q816.7282560296851 167.11499999999995 816.3982560296852 167.05499999999995Q816.298256029685 167.03499999999997 816.1982560296851 167.03499999999997H814.7982560296851V155.79499999999996H815.9882560296851Q817.6482560296852 155.79499999999996 818.2082560296851 157.80499999999995Q818.2082560296851 157.88499999999993 818.2282560296851 157.92499999999995L818.5482560296851 159.30499999999995H819.1282560296852L819.028256029685 155.26499999999993H808.8882560296852L808.788256029685 159.30499999999995H809.3682560296851L809.6882560296851 157.92499999999995Q810.3482560296851 155.91499999999996 811.9282560296851 155.79499999999996H813.038256029685V167.03499999999997H811.0882560296851ZM822.4082560296852 163.18499999999995Q822.4082560296852 160.00499999999994 824.1482560296852 159.31499999999994Q824.5982560296851 159.14499999999992 825.0982560296851 159.14499999999992Q827.3682560296851 159.14499999999992 827.7382560296851 162.01499999999993Q827.798256029685 162.51499999999993 827.798256029685 163.1049999999999Q827.798256029685 166.5549999999999 825.9182560296852 167.14499999999992Q825.548256029685 167.24499999999995 825.1582560296852 167.24499999999995Q823.0882560296851 167.24499999999995 822.548256029685 164.78499999999997Q822.4082560296852 164.075 822.4082560296852 163.18499999999995M825.1582560296852 158.63499999999993Q823.1882560296851 158.63499999999993 821.8782560296852 159.98499999999996Q820.6682560296852 161.24499999999995 820.6682560296852 163.10499999999996Q820.6682560296852 165.69499999999994 822.5482560296851 166.98499999999996Q823.6982560296851 167.76499999999993 825.0982560296852 167.76499999999993Q827.0582560296851 167.76499999999993 828.3582560296852 166.36499999999995Q829.5482560296851 165.09499999999997 829.5482560296851 163.18499999999995Q829.5482560296851 160.60499999999996 827.6382560296852 159.35499999999996Q826.5082560296851 158.63499999999993 825.1582560296852 158.63499999999993M833.028256029685 161.88499999999993Q833.0682560296851 159.17499999999995 835.0782560296851 159.15499999999992Q837.0882560296851 159.19499999999994 837.1082560296851 161.88499999999993Q837.068256029685 164.67499999999995 835.0782560296851 164.69499999999994Q833.0482560296851 164.65499999999992 833.028256029685 161.88499999999993M835.0982560296851 158.64499999999992Q833.2582560296851 158.64499999999992 832.1682560296852 159.83499999999992Q831.3882560296852 160.71499999999992 831.3882560296852 161.90499999999992Q831.3882560296852 163.46499999999992 832.9082560296852 164.4949999999999Q833.048256029685 164.5949999999999 833.1982560296851 164.6749999999999Q831.8782560296852 164.6749999999999 831.5582560296851 165.8049999999999Q831.4882560296851 166.06499999999988 831.4882560296851 166.33499999999987Q831.5082560296851 167.42499999999984 832.3782560296852 167.95499999999987Q831.6982560296851 168.6749999999999 831.6982560296851 169.41499999999985Q831.6982560296851 170.54499999999985 833.028256029685 171.09499999999986Q833.8682560296851 171.46499999999986 835.0982560296851 171.46499999999986Q838.2182560296851 171.46499999999986 839.2282560296851 169.94499999999988Q839.548256029685 169.4349999999999 839.548256029685 168.8549999999999Q839.548256029685 167.0949999999999 837.5182560296851 166.82499999999993Q837.2582560296851 166.7849999999999 836.9682560296851 166.7849999999999L833.2382560296851 166.70499999999993Q832.288256029685 166.64499999999992 832.2682560296851 165.88499999999993Q832.2682560296851 165.35499999999996 832.9482560296851 165.20499999999993Q833.088256029685 165.18499999999995 833.2582560296851 165.18499999999995L835.058256029685 165.20499999999993Q836.8882560296851 165.20499999999993 837.9682560296851 163.9749999999999Q838.7482560296851 163.0949999999999 838.7482560296851 161.88499999999993Q838.7282560296851 160.3449999999999 837.558256029685 159.42499999999995Q837.7482560296851 158.76499999999993 838.2582560296851 158.64499999999998Q838.338256029685 158.625 838.4282560296851 158.625Q838.7082560296851 158.625 839.038256029685 158.935Q839.2682560296851 159.135 839.4482560296851 159.135Q839.9582560296851 159.015 840.0482560296851 158.485Q840.0482560296851 157.84500000000003 839.4482560296851 157.625Q839.2282560296851 157.53500000000003 838.9982560296851 157.53500000000003Q838.0382560296852 157.53500000000003 837.4382560296851 158.39500000000004Q837.2182560296851 158.72500000000002 837.0882560296851 159.11500000000007Q836.1682560296852 158.64500000000004 835.0982560296851 158.64500000000004M835.0982560296851 170.93500000000006Q833.0682560296851 170.93500000000006 832.538256029685 169.86500000000007Q832.3982560296852 169.57500000000005 832.3982560296852 169.28500000000008Q832.4182560296852 168.73500000000007 832.8882560296852 168.18500000000006Q833.2982560296851 168.26500000000004 833.5682560296851 168.26500000000004L836.7182560296851 168.30500000000006Q838.2582560296851 168.32500000000005 838.5082560296851 169.00500000000005Q838.5682560296851 169.16500000000008 838.5682560296851 169.41500000000008Q838.5682560296851 170.31500000000005 836.8882560296852 170.72500000000008Q836.0682560296851 170.93500000000006 835.0982560296851 170.93500000000006M845.3382560296851 159.14500000000004Q846.7682560296851 159.14500000000004 847.2382560296851 160.35500000000002Q847.4082560296852 160.745 847.4082560296852 161.195Q847.4082560296852 162.22499999999997 846.4182560296852 162.45499999999998Q845.9082560296852 162.555 844.9682560296851 162.53499999999997L842.788256029685 162.47499999999997Q842.8982560296852 160.11499999999995 844.3282560296851 159.39499999999998Q844.7982560296851 159.14499999999998 845.3382560296851 159.14499999999998M848.9082560296852 165.58499999999998L848.3882560296852 165.40499999999997Q847.6782560296851 166.96499999999997 846.0782560296851 167.16499999999996Q845.8682560296852 167.18499999999995 845.6882560296851 167.18499999999995Q843.528256029685 167.18499999999995 842.9782560296851 164.62499999999994Q842.8082560296851 163.90499999999992 842.7882560296852 163.04499999999996L845.2582560296852 163.08499999999998Q847.7582560296852 163.125 848.4682560296851 162.61499999999995Q849.0282560296852 162.20499999999993 849.0282560296852 161.44499999999994Q849.0282560296852 160.05499999999995 847.6082560296852 159.23499999999996Q846.6082560296852 158.63499999999993 845.2982560296851 158.63499999999993Q842.7282560296851 158.63499999999993 841.6282560296852 160.76499999999993Q841.0482560296851 161.87499999999994 841.0482560296851 163.27499999999992Q841.0482560296851 165.81499999999994 842.8782560296852 167.0449999999999Q843.9582560296851 167.76499999999993 845.3582560296852 167.76499999999993Q847.5682560296851 167.76499999999993 848.6182560296852 166.1649999999999Q848.7782560296852 165.8749999999999 848.9082560296852 165.58499999999992M850.1682560296852 158.8549999999999V159.3649999999999H851.5982560296852V165.14499999999987Q851.7482560296851 167.71499999999986 853.9582560296851 167.79499999999985Q855.8482560296852 167.79499999999985 856.3182560296852 165.47499999999985V165.43499999999983L855.7682560296852 165.3349999999998Q855.2482560296852 167.0349999999998 854.2682560296852 167.17499999999978Q853.1582560296852 167.13499999999976 853.1382560296852 165.5949999999998V159.36499999999978H856.3182560296852V158.8549999999998H853.1382560296852V156.4749999999998L851.5982560296852 156.9049999999998V158.8549999999998ZM861.1682560296852 167.0449999999999H860.1382560296852V162.6149999999999Q860.1382560296852 160.7449999999999 861.4382560296851 159.90499999999992Q861.9682560296851 159.5549999999999 862.5382560296853 159.5549999999999Q863.7882560296853 159.5549999999999 864.2882560296853 160.7249999999999Q864.5082560296853 161.2849999999999 864.5082560296853 161.95499999999993V165.81499999999994Q864.5082560296853 166.75499999999994 864.0582560296853 166.94499999999994Q863.7682560296853 167.04499999999996 863.0782560296852 167.04499999999996V167.55499999999995H867.5882560296852Q867.5882560296852 167.10499999999996 867.2782560296853 167.06499999999994Q867.1982560296852 167.04499999999996 867.0782560296852 167.04499999999996H866.0482560296853V161.95499999999998Q866.0482560296853 159.72499999999997 864.5682560296852 158.925Q863.9982560296853 158.635 863.3382560296852 158.635Q861.8282560296852 158.635 860.7982560296853 159.745Q860.3682560296852 160.21500000000003 860.1382560296852 160.805V154.22500000000002H857.0682560296852V154.735H858.6082560296852V165.815Q858.6082560296852 166.755 858.0682560296852 166.945Q857.7582560296852 167.04500000000002 857.0682560296852 167.04500000000002V167.555H861.6782560296851Q861.6782560296851 167.10500000000002 861.3682560296852 167.065Q861.2882560296853 167.04500000000002 861.1682560296852 167.04500000000002M873.2282560296852 159.14500000000004Q874.6582560296852 159.14500000000004 875.1282560296852 160.35500000000002Q875.2982560296853 160.745 875.2982560296853 161.195Q875.2982560296853 162.22499999999997 874.3082560296853 162.45499999999998Q873.7982560296853 162.555 872.8582560296852 162.53499999999997L870.6782560296851 162.47499999999997Q870.7882560296853 160.11499999999995 872.2182560296852 159.39499999999998Q872.6882560296852 159.14499999999998 873.2282560296852 159.14499999999998M876.7982560296853 165.58499999999998L876.2782560296853 165.40499999999997Q875.5682560296852 166.96499999999997 873.9682560296852 167.16499999999996Q873.7582560296853 167.18499999999995 873.5782560296852 167.18499999999995Q871.4182560296852 167.18499999999995 870.8682560296852 164.62499999999994Q870.7082560296852 163.90499999999992 870.6782560296853 163.04499999999996L873.1482560296853 163.08499999999998Q875.6482560296853 163.125 876.3682560296853 162.61499999999995Q876.9182560296854 162.20499999999993 876.9182560296854 161.44499999999994Q876.9182560296854 160.05499999999995 875.4982560296853 159.23499999999996Q874.4982560296853 158.63499999999993 873.1882560296854 158.63499999999993Q870.6182560296853 158.63499999999993 869.5182560296853 160.76499999999993Q868.9382560296854 161.87499999999994 868.9382560296854 163.27499999999992Q868.9382560296854 165.81499999999994 870.7682560296853 167.0449999999999Q871.8482560296852 167.76499999999993 873.2482560296853 167.76499999999993Q875.4582560296853 167.76499999999993 876.5082560296853 166.1649999999999Q876.6682560296854 165.8749999999999 876.7982560296853 165.58499999999992M882.8482560296853 167.05499999999995H881.3682560296853V162.97499999999997Q881.3682560296853 161.10499999999996 882.5182560296853 159.97499999999997Q882.9682560296853 159.54499999999996 883.2782560296853 159.52499999999998Q883.6282560296853 159.52499999999998 883.9082560296853 160.04499999999996Q884.2382560296853 160.61499999999995 884.5282560296853 160.69499999999994Q884.6482560296853 160.73499999999996 884.7682560296853 160.73499999999996Q885.3882560296853 160.73499999999996 885.5482560296853 160.14499999999998Q885.5882560296852 160.015 885.5882560296852 159.89499999999998Q885.5882560296852 158.97499999999997 884.6482560296852 158.765Q884.4482560296851 158.72499999999997 884.2582560296852 158.72499999999997Q883.0282560296852 158.72499999999997 882.0682560296851 159.77499999999998Q881.6182560296851 160.265 881.3482560296851 160.885L881.2682560296851 158.85500000000002H878.288256029685V159.365H879.828256029685V165.825Q879.828256029685 166.765 879.298256029685 166.95499999999998Q878.9882560296851 167.055 878.288256029685 167.055V167.565H883.3582560296851Q883.3582560296851 167.115 883.0482560296851 167.075Q882.9682560296851 167.055 882.8482560296851 167.055M888.8082560296851 166.625Q888.8082560296851 165.945 888.1982560296851 165.65499999999997Q887.9882560296851 165.55499999999995 887.7682560296852 165.55499999999995Q887.0882560296852 165.55499999999995 886.8182560296851 166.17499999999995Q886.7182560296851 166.39499999999998 886.7182560296851 166.62499999999994Q886.7182560296851 167.27499999999992 887.3182560296851 167.56499999999994Q887.5382560296852 167.66499999999996 887.7682560296852 167.66499999999996Q888.4182560296852 167.66499999999996 888.7082560296852 167.075Q888.8082560296853 166.84499999999997 888.8082560296853 166.625 "></path><path fill="#fbfbfb" d="M488.06225602968453 0.17000000000001592V164.84900000000005H623.2722560296845V160.14900000000006H492.7622560296846V4.8700000000000045H1042.1542560296846V160.149H911.6442560296847V164.849H1046.8542560296846V0.17000000000001592Z "></path></g><rect width="559" height="173" x="470.5" y="0" id="space-saver" fill="transparent" stroke="transparent"></rect></g></svg>