<svg xmlns="http://www.w3.org/2000/svg" xml:space="preserve" width="1500" height="1500" viewBox="0 0 1500 1500" data-version="1" data-id="lg_GwrIcSDk1sY8K9QFZi" x="0" y="0"><rect width="1500" height="1500" id="background" stroke="transparent" fill="#2d2d2d"></rect><g id="outer-wrapper" data-padding="20" transform="matrix(1.7889087656529516,0,0,1.7889087656529516,-591.6815742397137,-591.6815742397137)"><g id="inner-wrapper" transform="matrix(0.964221824686941,0,0,0.964221824686941,10,3.094812164579608)"><rect width="449.254" height="122.04" x="142.83125602968454" y="313.44466604823754" fill="none" rx="0" ry="0" transform="translate(399.41 396.4)"></rect><path fill="#fbfbfb" d="M547.3982560296845 804.7946660482373H593.5882560296844L594.1182560296845 783.6946660482374H592.0082560296845L590.2182560296844 790.7646660482374Q587.6882560296845 800.4646660482374 581.7782560296845 801.8346660482373Q580.5082560296845 802.0446660482373 579.3482560296844 802.0446660482373H564.8982560296845V744.2546660482374H573.7582560296845V741.5146660482374H547.3982560296845V744.2546660482374H555.8282560296844V802.0446660482373H547.3982560296845ZM649.4782560296844 802.1546660482375H644.2082560296844V759.9646660482374H627.6482560296845V762.6046660482374H636.2982560296845V785.3846660482374Q636.2982560296845 794.8746660482374 629.6482560296845 799.3046660482373Q626.6982560296844 801.3146660482373 623.5382560296845 801.3146660482373Q614.8882560296845 801.3146660482373 613.5182560296845 792.4546660482374Q613.2982560296845 790.9746660482374 613.2982560296845 789.2846660482373V759.9646660482374H597.2682560296845V762.6046660482374H605.3882560296845V787.7046660482374Q605.4982560296845 805.7446660482374 620.4782560296844 805.8446660482374Q628.3882560296845 805.8446660482374 633.4482560296844 799.4146660482375Q635.3482560296845 796.9846660482374 636.5082560296845 794.0346660482373L637.2482560296845 804.7946660482373H652.1182560296845Q652.1182560296845 802.4746660482374 650.5382560296846 802.2646660482374Q650.1082560296845 802.1546660482375 649.4782560296845 802.1546660482375M678.7082560296845 802.1546660482375H673.9582560296845V779.3746660482374Q674.2782560296846 770.0946660482374 680.3882560296845 765.5546660482373Q683.2382560296846 763.4446660482374 686.0882560296845 763.4446660482374Q691.3582560296845 763.4446660482374 693.3682560296845 769.2446660482374Q694.2082560296844 771.7746660482373 694.2082560296844 774.9446660482374V795.8246660482373Q694.2082560296844 800.6746660482374 691.8882560296845 801.6246660482374Q690.4082560296845 802.1546660482373 686.8282560296846 802.1546660482373V804.7946660482373H709.4982560296845Q709.4982560296845 802.4746660482374 707.9182560296845 802.2646660482374Q707.4982560296845 802.1546660482373 706.8682560296845 802.1546660482373H702.1182560296845V775.1546660482373Q703.8082560296846 767.4546660482374 709.6082560296845 764.3946660482374Q711.8182560296846 763.3446660482373 713.8282560296846 763.3446660482373Q719.2082560296845 763.3446660482373 721.4182560296845 768.9346660482373Q722.4782560296845 771.5646660482373 722.4782560296845 774.9446660482373V795.8246660482373Q722.4782560296845 800.6746660482373 720.1482560296845 801.6246660482373Q718.6782560296845 802.1546660482372 715.0882560296845 802.1546660482372V804.7946660482373H738.3982560296845Q738.3982560296845 802.4746660482373 736.8182560296846 802.2646660482374Q736.3982560296845 802.1546660482372 735.7582560296846 802.1546660482372H730.3882560296845V775.9946660482373Q730.3882560296845 765.1346660482372 723.3182560296846 760.8146660482373Q720.1482560296845 758.9146660482372 716.4582560296845 758.9146660482372Q708.4482560296846 758.9146660482372 703.5982560296845 766.4046660482372Q702.3282560296846 768.2946660482373 701.4882560296845 770.4046660482372Q699.5882560296845 762.0746660482373 693.1482560296845 759.6546660482372Q691.2582560296846 758.9146660482372 689.2482560296846 758.9146660482372Q681.6582560296846 758.9146660482372 676.6982560296846 765.3446660482373Q674.9082560296845 767.6646660482372 673.8482560296845 770.5146660482374L673.4282560296845 759.9646660482373H658.1382560296845V762.6046660482373H666.0482560296846V795.8246660482373Q666.0482560296846 800.6746660482373 663.3082560296846 801.6246660482373Q661.7282560296845 802.1546660482372 658.1382560296845 802.1546660482372V804.7946660482373H681.3382560296845Q681.3382560296845 802.5746660482373 679.7582560296845 802.2646660482374Q679.2282560296845 802.1546660482372 678.7082560296844 802.1546660482372M767.2982560296846 761.5546660482373Q774.6782560296845 761.5546660482373 777.1082560296845 767.7846660482373Q777.9482560296844 769.7846660482373 777.9482560296844 772.1046660482373Q777.9482560296844 777.3746660482373 772.8882560296845 778.5346660482373Q770.2482560296845 779.0646660482373 765.3982560296845 778.9646660482373L754.2182560296844 778.6446660482372Q754.7482560296844 766.5146660482374 762.1282560296845 762.8246660482373Q764.5582560296846 761.5546660482373 767.2982560296846 761.5546660482373M785.6482560296845 794.6746660482373L783.0082560296846 793.7246660482374Q779.3182560296846 801.7446660482374 771.0982560296845 802.7946660482373Q770.0382560296846 802.9046660482373 769.0882560296845 802.9046660482373Q758.0182560296846 802.9046660482373 755.1682560296845 789.7146660482374Q754.3282560296846 786.0246660482373 754.2182560296845 781.5946660482373L766.8782560296845 781.8046660482373Q779.7382560296846 782.0246660482373 783.4382560296846 779.3846660482372Q786.2782560296846 777.2746660482373 786.2782560296846 773.3746660482373Q786.2782560296846 766.1946660482373 779.0082560296846 761.9846660482374Q773.8382560296845 758.9246660482373 767.0882560296845 758.9246660482373Q753.8982560296845 758.9246660482373 748.2082560296845 769.8946660482374Q745.2582560296846 775.5846660482373 745.2582560296846 782.7546660482374Q745.2582560296846 795.8346660482373 754.6382560296845 802.1646660482375Q760.2282560296845 805.8546660482374 767.3982560296845 805.8546660482374Q778.7982560296846 805.8546660482374 784.1682560296845 797.6246660482374Q785.0182560296846 796.1546660482373 785.6482560296845 794.6746660482374M813.7082560296845 802.1546660482375H808.9582560296845V779.3746660482374Q809.2782560296846 769.5646660482373 815.9182560296845 765.2446660482374Q818.7682560296846 763.4446660482374 821.7182560296845 763.4446660482374Q828.1482560296845 763.4446660482374 830.4782560296845 769.4546660482374Q831.4182560296845 771.8846660482374 831.4182560296845 774.9446660482374V795.8246660482373Q831.4182560296845 800.6746660482374 828.6782560296845 801.6246660482374Q827.0982560296845 802.1546660482373 823.5082560296845 802.1546660482373V804.7946660482373H847.2382560296845Q847.2382560296845 802.4746660482374 845.6582560296845 802.2646660482374Q845.2382560296845 802.1546660482373 844.6082560296845 802.1546660482373H839.3282560296846V775.9946660482374Q839.3282560296846 765.4546660482373 832.0582560296846 760.9146660482373Q828.6782560296846 758.9146660482373 824.7782560296846 758.9146660482373Q816.9782560296846 758.9146660482373 811.9082560296846 765.1346660482374Q810.0082560296846 767.5646660482373 808.8482560296845 770.5146660482374L808.4282560296846 759.9646660482374H793.1382560296845V762.6046660482373H801.0482560296846V795.8246660482373Q801.0482560296846 800.6746660482373 798.3082560296846 801.6246660482373Q796.7282560296846 802.1546660482372 793.1382560296845 802.1546660482372V804.7946660482373H816.3382560296845Q816.3382560296845 802.4746660482373 814.7582560296846 802.2646660482374Q814.3382560296845 802.1546660482372 813.7082560296845 802.1546660482372M854.6282560296845 781.4946660482373L892.3882560296845 796.6846660482372L893.8582560296845 793.3046660482373L860.5282560296846 779.9146660482372L893.8582560296845 766.4146660482372L892.5982560296845 763.3546660482373L854.6282560296845 778.5346660482373ZM898.5982560296845 821.1346660482372H904.9282560296847L940.8882560296847 729.9046660482372H934.5582560296846ZM985.9382560296847 778.5346660482372L948.1782560296847 763.3546660482373L946.6982560296847 766.7246660482372L980.0282560296846 780.1246660482373L946.6982560296847 793.6246660482373L947.9682560296847 796.6846660482372L985.9382560296847 781.4946660482371Z "></path><rect width="248.762" height="23.73" x="243.0772560296845" y="362.5996660482373" fill="none" rx="0" ry="0" transform="translate(399.86 474.62)"></rect><path fill="#fbfbfb" d="M656.7082560296845 855.6846660482374H656.8682560296845L660.9282560296846 843.9146660482375H661.9582560296845V843.3846660482375H658.6282560296845V843.9146660482375H660.2682560296846L657.0482560296846 853.5946660482375L653.7482560296845 843.9146660482375H655.4082560296845V843.3846660482375H651.8882560296845L653.2782560296846 847.3146660482375L651.1282560296845 853.5546660482376L647.6582560296845 843.9146660482375H649.3182560296846V843.3846660482375H644.8082560296846V843.9146660482375H646.0182560296846L649.7982560296846 854.4546660482375Q650.2082560296845 855.6246660482375 650.5282560296846 855.7446660482376Q650.6582560296845 855.7846660482376 650.7782560296846 855.7846660482376H650.9382560296846L653.6082560296845 848.2646660482376L655.7982560296846 854.4546660482376Q656.1682560296846 855.5046660482376 656.3982560296846 855.6246660482376Q656.5182560296846 855.6846660482377 656.7082560296847 855.6846660482377M666.7082560296847 855.1646660482377H665.6882560296847V850.7346660482376Q665.6882560296847 848.8646660482376 666.9782560296846 848.0246660482376Q667.5082560296846 847.6746660482377 668.0882560296847 847.6746660482377Q669.3382560296847 847.6746660482377 669.8282560296847 848.8446660482376Q670.0582560296847 849.4046660482377 670.0582560296847 850.0746660482376V853.9346660482377Q670.0582560296847 854.8746660482377 669.6082560296848 855.0646660482377Q669.3182560296847 855.1646660482377 668.6182560296847 855.1646660482377V855.6746660482377H673.1282560296847Q673.1282560296847 855.2246660482376 672.8282560296847 855.1846660482377Q672.7382560296846 855.1646660482377 672.6182560296847 855.1646660482377H671.5882560296848V850.0746660482378Q671.5882560296848 847.8446660482377 670.1182560296847 847.0446660482378Q669.5382560296847 846.7546660482377 668.8882560296847 846.7546660482377Q667.3682560296847 846.7546660482377 666.3382560296847 847.8646660482377Q665.9082560296847 848.3346660482378 665.6882560296847 848.9246660482377V842.3446660482377H662.6082560296848V842.8546660482377H664.1482560296847V853.9346660482377Q664.1482560296847 854.8746660482377 663.6182560296847 855.0646660482378Q663.3082560296848 855.1646660482377 662.6082560296848 855.1646660482377V855.6746660482377H667.2282560296848Q667.2282560296848 855.2246660482377 666.9182560296847 855.1846660482377Q666.8382560296848 855.1646660482377 666.7082560296848 855.1646660482377M678.7782560296848 847.2646660482378Q680.2182560296848 847.2646660482378 680.6882560296848 848.4746660482377Q680.8482560296848 848.8646660482377 680.8482560296848 849.3146660482378Q680.8482560296848 850.3446660482377 679.8682560296847 850.5746660482378Q679.3582560296848 850.6746660482377 678.4082560296848 850.6546660482377L676.2382560296849 850.5946660482377Q676.3382560296848 848.2346660482376 677.7782560296848 847.5146660482377Q678.2482560296849 847.2646660482377 678.7782560296848 847.2646660482377M682.3482560296848 853.7046660482376L681.8382560296848 853.5246660482377Q681.1182560296847 855.0846660482378 679.5182560296848 855.2846660482377Q679.3182560296848 855.3046660482377 679.1282560296848 855.3046660482377Q676.9782560296849 855.3046660482377 676.4182560296849 852.7446660482376Q676.2582560296848 852.0246660482376 676.2382560296849 851.1646660482377L678.6982560296849 851.2046660482376Q681.1982560296849 851.2446660482377 681.9182560296849 850.7346660482376Q682.4682560296849 850.3246660482376 682.4682560296849 849.5646660482377Q682.4682560296849 848.1746660482377 681.0582560296848 847.3546660482377Q680.0482560296848 846.7546660482376 678.7382560296849 846.7546660482376Q676.1782560296849 846.7546660482376 675.0682560296848 848.8846660482377Q674.4982560296849 849.9946660482376 674.4982560296849 851.3946660482377Q674.4982560296849 853.9346660482377 676.3182560296848 855.1646660482377Q677.4082560296848 855.8846660482377 678.7982560296848 855.8846660482377Q681.0182560296848 855.8846660482377 682.0582560296848 854.2846660482376Q682.2282560296849 853.9946660482376 682.3482560296849 853.7046660482376M688.388256029685 855.1746660482377H686.9082560296849V851.0946660482377Q686.9082560296849 849.2246660482376 688.0582560296848 848.0946660482377Q688.5082560296848 847.6646660482377 688.8182560296848 847.6446660482377Q689.1682560296849 847.6446660482377 689.4582560296849 848.1646660482377Q689.7882560296848 848.7346660482376 690.0682560296848 848.8146660482377Q690.1982560296849 848.8546660482377 690.3182560296848 848.8546660482377Q690.9282560296849 848.8546660482377 691.0982560296848 848.2646660482377Q691.1382560296848 848.1346660482377 691.1382560296848 848.0146660482377Q691.1382560296848 847.0946660482377 690.1982560296849 846.8846660482377Q689.9882560296849 846.8446660482377 689.8082560296848 846.8446660482377Q688.5782560296848 846.8446660482377 687.6082560296849 847.8946660482377Q687.1582560296849 848.3846660482377 686.8882560296848 849.0046660482377L686.8082560296848 846.9746660482377H683.8382560296848V847.4846660482377H685.3782560296848V853.9446660482377Q685.3782560296848 854.8846660482377 684.8382560296848 855.0746660482378Q684.5382560296848 855.1746660482377 683.8382560296848 855.1746660482377V855.6846660482377H688.8982560296848Q688.8982560296848 855.2346660482377 688.5982560296848 855.1946660482377Q688.5082560296848 855.1746660482377 688.3882560296848 855.1746660482377M696.3482560296848 847.2646660482377Q697.7782560296848 847.2646660482377 698.2582560296848 848.4746660482376Q698.4182560296849 848.8646660482377 698.4182560296849 849.3146660482377Q698.4182560296849 850.3446660482376 697.4282560296849 850.5746660482376Q696.9182560296849 850.6746660482377 695.9782560296849 850.6546660482377L693.7982560296848 850.5946660482376Q693.9082560296849 848.2346660482376 695.3382560296849 847.5146660482376Q695.8082560296849 847.2646660482376 696.3482560296849 847.2646660482376M699.9182560296849 853.7046660482376L699.398256029685 853.5246660482376Q698.6882560296849 855.0846660482376 697.0882560296849 855.2846660482376Q696.878256029685 855.3046660482376 696.6982560296849 855.3046660482376Q694.5382560296848 855.3046660482376 693.9882560296849 852.7446660482376Q693.8282560296849 852.0246660482376 693.7982560296849 851.1646660482377L696.268256029685 851.2046660482376Q698.768256029685 851.2446660482376 699.488256029685 850.7346660482376Q700.038256029685 850.3246660482375 700.038256029685 849.5646660482375Q700.038256029685 848.1746660482377 698.618256029685 847.3546660482376Q697.618256029685 846.7546660482376 696.308256029685 846.7546660482376Q693.738256029685 846.7546660482376 692.638256029685 848.8846660482376Q692.058256029685 849.9946660482376 692.058256029685 851.3946660482376Q692.058256029685 853.9346660482377 693.888256029685 855.1646660482376Q694.9682560296849 855.8846660482376 696.368256029685 855.8846660482376Q698.578256029685 855.8846660482376 699.628256029685 854.2846660482376Q699.788256029685 853.9946660482376 699.9182560296849 853.7046660482376M705.578256029685 855.6846660482377H710.598256029685Q710.598256029685 855.2346660482376 710.2682560296851 855.1746660482377Q710.1682560296849 855.1546660482377 710.068256029685 855.1546660482377H708.9782560296851V843.9146660482377H710.598256029685V843.3846660482377H705.578256029685V843.9146660482377H707.2182560296851V855.1546660482377H705.578256029685ZM719.068256029685 853.5146660482376L719.2282560296851 855.6846660482377H722.168256029685Q722.168256029685 855.2346660482376 721.858256029685 855.1946660482377Q721.778256029685 855.1746660482377 721.6482560296851 855.1746660482377H720.6282560296851L720.588256029685 842.3546660482376H717.098256029685V842.8646660482376H719.048256029685V847.8746660482376Q718.048256029685 846.7646660482376 716.338256029685 846.7646660482376Q714.088256029685 846.7646660482376 712.9382560296851 848.7746660482376Q712.2382560296851 850.0046660482376 712.2382560296851 851.5446660482376Q712.2382560296851 854.0846660482375 713.8382560296851 855.2546660482376Q714.7382560296851 855.8946660482375 715.8282560296851 855.8946660482375Q718.0682560296851 855.8546660482375 719.0682560296851 853.5146660482376M713.9782560296851 851.2946660482376Q713.9782560296851 848.4046660482375 715.5382560296852 847.5446660482376Q716.0382560296852 847.2746660482376 716.6282560296852 847.2746660482376Q718.1282560296852 847.2746660482376 718.7582560296851 848.8746660482375Q719.1082560296852 849.7346660482376 719.1082560296852 850.9046660482375Q719.1082560296852 853.3646660482375 717.8782560296852 854.4746660482375Q717.2182560296851 855.0746660482375 716.3782560296852 855.0746660482375Q714.6982560296851 855.0746660482375 714.1882560296851 853.0246660482376Q713.9782560296851 852.2646660482376 713.9782560296851 851.2946660482376M727.7682560296852 847.2646660482376Q729.1982560296851 847.2646660482376 729.6682560296852 848.4746660482375Q729.8382560296852 848.8646660482375 729.8382560296852 849.3146660482375Q729.8382560296852 850.3446660482375 728.8482560296852 850.5746660482375Q728.3382560296852 850.6746660482374 727.3982560296852 850.6546660482375L725.2182560296851 850.5946660482375Q725.3282560296852 848.2346660482374 726.7582560296852 847.5146660482375Q727.2282560296852 847.2646660482375 727.7682560296852 847.2646660482375M731.3282560296852 853.7046660482374L730.8182560296852 853.5246660482375Q730.0982560296852 855.0846660482375 728.4982560296852 855.2846660482375Q728.2982560296853 855.3046660482374 728.1082560296852 855.3046660482374Q725.9582560296852 855.3046660482374 725.4082560296852 852.7446660482374Q725.2382560296852 852.0246660482373 725.2182560296852 851.1646660482375L727.6782560296851 851.2046660482374Q730.1882560296851 851.2446660482375 730.8982560296852 850.7346660482374Q731.4582560296852 850.3246660482374 731.4582560296852 849.5646660482374Q731.4582560296852 848.1746660482374 730.0382560296853 847.3546660482375Q729.0382560296853 846.7546660482374 727.7182560296852 846.7546660482374Q725.1582560296852 846.7546660482374 724.0482560296853 848.8846660482375Q723.4782560296852 849.9946660482374 723.4782560296852 851.3946660482375Q723.4782560296852 853.9346660482374 725.2982560296853 855.1646660482375Q726.3882560296852 855.8846660482375 727.7882560296853 855.8846660482375Q729.9982560296852 855.8846660482375 731.0482560296853 854.2846660482373Q731.2082560296852 853.9946660482374 731.3282560296852 853.7046660482374M740.1882560296851 855.8846660482375Q741.7682560296852 855.8846660482375 741.9382560296851 853.9746660482374Q741.9582560296851 853.8546660482374 741.9582560296851 853.7446660482374L741.4182560296852 853.7246660482374Q741.2782560296852 855.2246660482374 740.6182560296852 855.2446660482374Q740.0882560296852 855.2046660482374 740.0682560296851 854.1746660482374V849.8546660482374Q740.0682560296851 846.9146660482375 737.1382560296852 846.7546660482374H736.7682560296851Q734.4682560296851 846.7546660482374 733.6882560296851 847.8246660482373Q733.4482560296851 848.1746660482374 733.4482560296851 848.5146660482374Q733.4482560296851 849.1546660482373 734.038256029685 849.2546660482374Q734.1382560296852 849.2746660482373 734.2482560296851 849.2746660482373Q734.7182560296851 849.2746660482373 734.9382560296851 848.6846660482374Q735.2282560296851 847.9246660482374 735.328256029685 847.7846660482373Q735.7182560296851 847.2646660482374 736.538256029685 847.2646660482374Q738.4682560296851 847.3946660482375 738.528256029685 849.3846660482375V850.6746660482374Q733.7082560296851 850.6746660482374 733.0182560296851 852.6846660482374Q732.8882560296851 853.0746660482374 732.8882560296851 853.5246660482373Q732.8882560296851 855.0846660482374 734.2682560296851 855.6546660482375Q734.818256029685 855.8846660482375 735.4382560296851 855.8846660482375Q736.9282560296851 855.8846660482375 737.9582560296851 854.8546660482375Q738.328256029685 854.4646660482374 738.5082560296851 854.0346660482375Q738.7582560296851 855.8646660482375 740.1882560296851 855.8846660482375M736.1082560296851 855.0646660482375Q734.8582560296851 855.0646660482375 734.568256029685 853.8146660482375Q734.5082560296851 853.5246660482375 734.5082560296851 853.1746660482374Q734.5082560296851 851.8046660482376 736.088256029685 851.4346660482374Q736.928256029685 851.2446660482375 738.528256029685 851.2246660482375V852.8646660482375Q738.2182560296851 854.2846660482376 737.038256029685 854.8546660482375Q736.558256029685 855.0646660482375 736.108256029685 855.0646660482375M745.9582560296851 855.3246660482375Q747.3682560296851 855.3246660482375 747.858256029685 854.4646660482374Q748.048256029685 854.1546660482375 748.048256029685 853.7946660482374Q748.048256029685 852.9246660482374 746.798256029685 852.3146660482374Q746.528256029685 852.1646660482375 745.918256029685 851.9046660482375Q744.2282560296851 851.2046660482374 743.678256029685 850.5946660482374Q743.088256029685 849.9146660482375 743.088256029685 849.0146660482374Q743.088256029685 847.5946660482374 744.6382560296851 847.0246660482373Q745.3582560296851 846.7546660482374 746.1982560296851 846.7546660482374Q747.558256029685 846.7546660482374 748.538256029685 847.3346660482374Q748.538256029685 846.7346660482374 748.828256029685 846.6546660482375Q748.9482560296851 846.6346660482375 749.088256029685 846.6346660482375V849.1946660482374H748.558256029685Q748.5182560296851 847.3046660482374 746.4682560296851 847.2846660482373Q744.9282560296851 847.2846660482373 744.558256029685 848.1946660482374Q744.4582560296851 848.4346660482374 744.4582560296851 848.7046660482374Q744.4582560296851 849.5846660482374 745.7282560296851 850.2046660482374Q746.0182560296851 850.3446660482374 746.628256029685 850.5946660482374Q748.288256029685 851.2646660482374 748.848256029685 851.8846660482375Q749.438256029685 852.5346660482373 749.438256029685 853.4446660482374Q749.438256029685 855.1046660482375 747.678256029685 855.6546660482375Q746.9982560296851 855.8846660482375 746.198256029685 855.8846660482375Q744.728256029685 855.8646660482375 743.638256029685 855.1446660482375Q743.638256029685 855.6746660482374 743.368256029685 855.7546660482374Q743.2482560296851 855.7746660482373 743.088256029685 855.7746660482373V852.6646660482375H743.658256029685Q743.6982560296851 855.3046660482373 745.9582560296851 855.3246660482374M764.2282560296851 852.4646660482374Q764.2282560296851 850.6446660482375 762.2582560296851 849.5346660482373Q761.868256029685 849.3246660482374 759.858256029685 848.4446660482374Q758.038256029685 847.6646660482375 757.558256029685 846.8446660482374Q757.318256029685 846.3946660482375 757.318256029685 845.8846660482375Q757.318256029685 844.5146660482374 758.648256029685 843.9746660482374Q759.218256029685 843.7546660482374 759.9182560296849 843.7546660482374Q761.638256029685 843.7546660482374 762.548256029685 844.9246660482374Q763.138256029685 845.7246660482374 763.118256029685 846.8646660482374H763.738256029685V843.2746660482373Q763.238256029685 843.2746660482373 763.1582560296849 843.5846660482374Q763.118256029685 843.7346660482374 763.118256029685 843.9746660482374Q761.6682560296849 843.1746660482374 759.838256029685 843.1746660482374Q757.628256029685 843.1746660482374 756.388256029685 844.4046660482375Q755.568256029685 845.2646660482374 755.568256029685 846.4146660482375Q755.568256029685 848.1346660482375 757.4982560296851 849.2246660482374Q757.848256029685 849.4146660482375 759.838256029685 850.2746660482373Q761.688256029685 851.0946660482374 762.1782560296849 851.9346660482374Q762.4382560296849 852.4046660482375 762.4382560296849 852.9546660482374Q762.4382560296849 854.3946660482375 761.048256029685 855.0346660482373Q760.388256029685 855.3146660482373 759.588256029685 855.3146660482373Q756.458256029685 855.2746660482373 756.108256029685 851.4846660482374H755.488256029685V855.7246660482374Q755.978256029685 855.7246660482374 756.068256029685 855.4446660482374Q756.108256029685 855.2746660482373 756.108256029685 854.8446660482374Q757.6882560296849 855.8946660482375 759.6982560296849 855.8946660482375Q762.048256029685 855.8946660482375 763.348256029685 854.6246660482375Q764.2282560296849 853.7146660482374 764.2282560296849 852.4646660482374M770.0082560296848 855.1646660482375H768.9882560296849V850.7346660482374Q768.9882560296849 848.8646660482374 770.2782560296849 848.0246660482373Q770.8082560296849 847.6746660482374 771.388256029685 847.6746660482374Q772.638256029685 847.6746660482374 773.128256029685 848.8446660482374Q773.348256029685 849.4046660482375 773.348256029685 850.0746660482374V853.9346660482374Q773.348256029685 854.8746660482375 772.898256029685 855.0646660482374Q772.618256029685 855.1646660482375 771.9182560296849 855.1646660482375V855.6746660482374H776.4282560296849Q776.4282560296849 855.2246660482374 776.118256029685 855.1846660482374Q776.038256029685 855.1646660482375 775.9182560296849 855.1646660482375H774.888256029685V850.0746660482375Q774.888256029685 847.8446660482375 773.4182560296849 847.0446660482376Q772.838256029685 846.7546660482375 772.1882560296849 846.7546660482375Q770.6682560296849 846.7546660482375 769.638256029685 847.8646660482375Q769.2082560296849 848.3346660482375 768.988256029685 848.9246660482374V842.3446660482375H765.9082560296849V842.8546660482375H767.448256029685V853.9346660482374Q767.448256029685 854.8746660482375 766.918256029685 855.0646660482375Q766.608256029685 855.1646660482375 765.908256029685 855.1646660482375V855.6746660482374H770.5182560296851Q770.5182560296851 855.2246660482375 770.2182560296851 855.1846660482374Q770.1282560296851 855.1646660482375 770.0082560296851 855.1646660482375M781.778256029685 855.1746660482374H780.7582560296851V846.9746660482375H777.578256029685V847.4846660482375H779.2182560296851V853.9446660482374Q779.2182560296851 854.8846660482375 778.578256029685 855.0946660482375Q778.278256029685 855.1746660482374 777.578256029685 855.1746660482374V855.6846660482374H782.298256029685Q782.298256029685 855.2346660482374 781.9882560296851 855.1946660482374Q781.8882560296851 855.1746660482374 781.778256029685 855.1746660482374M780.9982560296851 843.9746660482374Q780.9982560296851 843.2546660482374 780.3682560296852 842.9546660482374Q780.1182560296852 842.8446660482375 779.8982560296852 842.8446660482375Q779.1782560296851 842.8446660482375 778.8682560296852 843.5046660482375Q778.7682560296851 843.7346660482375 778.7682560296851 843.9746660482375Q778.7682560296851 844.7346660482375 779.4482560296851 845.0246660482376Q779.6682560296852 845.1046660482375 779.8982560296852 845.1046660482375Q780.6082560296851 845.1046660482375 780.8982560296852 844.4446660482374Q780.9982560296851 844.2246660482374 780.9982560296851 843.9746660482374M787.528256029685 855.1746660482374H786.5982560296851V850.7446660482374Q786.6582560296852 848.8346660482374 787.9582560296851 847.9946660482374Q788.5082560296851 847.6446660482375 789.0782560296851 847.6446660482375Q790.3382560296851 847.6446660482375 790.788256029685 848.8146660482374Q790.9682560296851 849.2846660482375 790.9682560296851 849.8846660482375V853.9446660482374Q790.9682560296851 854.8846660482375 790.4382560296851 855.0746660482374Q790.1282560296852 855.1746660482374 789.4282560296851 855.1746660482374V855.6846660482374H794.0482560296851Q794.0482560296851 855.2346660482374 793.7382560296851 855.1946660482374Q793.6582560296852 855.1746660482374 793.5282560296852 855.1746660482374H792.5082560296852V850.0846660482375Q792.5082560296852 848.0346660482375 791.0882560296852 847.1546660482375Q790.4382560296851 846.7646660482375 789.6782560296851 846.7646660482375Q788.1582560296852 846.7646660482375 787.1782560296851 847.9746660482374Q786.8082560296851 848.4446660482374 786.5782560296851 849.0246660482375L786.4982560296851 846.9746660482374H783.528256029685V847.4846660482374H785.058256029685V853.9446660482374Q785.058256029685 854.8846660482375 784.528256029685 855.0746660482374Q784.2182560296851 855.1746660482374 783.528256029685 855.1746660482374V855.6846660482374H788.038256029685Q788.038256029685 855.2346660482374 787.7282560296851 855.1946660482374Q787.6482560296852 855.1746660482374 787.528256029685 855.1746660482374M799.6682560296852 847.2646660482374Q801.0982560296851 847.2646660482374 801.568256029685 848.4746660482374Q801.7382560296851 848.8646660482374 801.7382560296851 849.3146660482373Q801.7382560296851 850.3446660482373 800.7482560296851 850.5746660482373Q800.2382560296851 850.6746660482374 799.298256029685 850.6546660482373L797.1182560296851 850.5946660482373Q797.2282560296851 848.2346660482374 798.6582560296852 847.5146660482374Q799.1282560296852 847.2646660482374 799.6682560296852 847.2646660482374M803.2282560296851 853.7046660482374L802.7182560296851 853.5246660482373Q801.9982560296851 855.0846660482373 800.3982560296852 855.2846660482373Q800.1982560296851 855.3046660482373 800.0082560296851 855.3046660482373Q797.8582560296852 855.3046660482373 797.3082560296851 852.7446660482374Q797.1382560296852 852.0246660482373 797.1182560296852 851.1646660482373L799.5782560296851 851.2046660482374Q802.0882560296851 851.2446660482374 802.7982560296851 850.7346660482374Q803.3582560296852 850.3246660482373 803.3582560296852 849.5646660482373Q803.3582560296852 848.1746660482373 801.9382560296851 847.3546660482373Q800.9382560296851 846.7546660482374 799.6282560296852 846.7546660482374Q797.0582560296851 846.7546660482374 795.9482560296851 848.8846660482372Q795.3782560296852 849.9946660482374 795.3782560296852 851.3946660482372Q795.3782560296852 853.9346660482373 797.2082560296851 855.1646660482372Q798.288256029685 855.8846660482372 799.6882560296851 855.8846660482372Q801.8982560296852 855.8846660482372 802.9482560296851 854.2846660482373Q803.1082560296852 853.9946660482373 803.2282560296851 853.7046660482373M811.0882560296851 855.6846660482373H816.7282560296851Q816.7282560296851 855.2346660482374 816.3982560296852 855.1746660482373Q816.298256029685 855.1546660482373 816.1982560296851 855.1546660482373H814.7982560296851V843.9146660482373H815.9882560296851Q817.6482560296852 843.9146660482373 818.2082560296851 845.9246660482373Q818.2082560296851 846.0046660482374 818.2282560296851 846.0446660482373L818.5482560296851 847.4246660482373H819.1282560296852L819.028256029685 843.3846660482372H808.8882560296852L808.788256029685 847.4246660482373H809.3682560296851L809.6882560296851 846.0446660482373Q810.3482560296851 844.0346660482373 811.9282560296851 843.9146660482373H813.038256029685V855.1546660482373H811.0882560296851ZM822.4082560296852 851.3046660482373Q822.4082560296852 848.1246660482373 824.1482560296852 847.4346660482373Q824.5982560296851 847.2646660482374 825.0982560296851 847.2646660482374Q827.3682560296851 847.2646660482374 827.7382560296851 850.1346660482372Q827.798256029685 850.6346660482372 827.798256029685 851.2246660482373Q827.798256029685 854.6746660482372 825.9182560296852 855.2646660482374Q825.548256029685 855.3646660482373 825.1582560296852 855.3646660482373Q823.0882560296851 855.3646660482373 822.548256029685 852.9046660482373Q822.4082560296852 852.1946660482374 822.4082560296852 851.3046660482373M825.1582560296852 846.7546660482374Q823.1882560296851 846.7546660482374 821.8782560296852 848.1046660482373Q820.6682560296852 849.3646660482373 820.6682560296852 851.2246660482374Q820.6682560296852 853.8146660482373 822.5482560296851 855.1046660482373Q823.6982560296851 855.8846660482372 825.0982560296852 855.8846660482372Q827.0582560296851 855.8846660482372 828.3582560296852 854.4846660482374Q829.5482560296851 853.2146660482374 829.5482560296851 851.3046660482373Q829.5482560296851 848.7246660482374 827.6382560296852 847.4746660482374Q826.5082560296851 846.7546660482374 825.1582560296852 846.7546660482374M833.028256029685 850.0046660482374Q833.0682560296851 847.2946660482373 835.0782560296851 847.2746660482373Q837.0882560296851 847.3146660482373 837.1082560296851 850.0046660482374Q837.068256029685 852.7946660482373 835.0782560296851 852.8146660482373Q833.0482560296851 852.7746660482373 833.028256029685 850.0046660482374M835.0982560296851 846.7646660482374Q833.2582560296851 846.7646660482374 832.1682560296852 847.9546660482373Q831.3882560296852 848.8346660482373 831.3882560296852 850.0246660482373Q831.3882560296852 851.5846660482373 832.9082560296852 852.6146660482373Q833.048256029685 852.7146660482373 833.1982560296851 852.7946660482373Q831.8782560296852 852.7946660482373 831.5582560296851 853.9246660482372Q831.4882560296851 854.1846660482372 831.4882560296851 854.4546660482372Q831.5082560296851 855.5446660482372 832.3782560296852 856.0746660482373Q831.6982560296851 856.7946660482373 831.6982560296851 857.5346660482372Q831.6982560296851 858.6646660482372 833.028256029685 859.2146660482372Q833.8682560296851 859.5846660482373 835.0982560296851 859.5846660482373Q838.2182560296851 859.5846660482373 839.2282560296851 858.0646660482373Q839.548256029685 857.5546660482373 839.548256029685 856.9746660482373Q839.548256029685 855.2146660482373 837.5182560296851 854.9446660482373Q837.2582560296851 854.9046660482372 836.9682560296851 854.9046660482372L833.2382560296851 854.8246660482373Q832.288256029685 854.7646660482374 832.2682560296851 854.0046660482374Q832.2682560296851 853.4746660482374 832.9482560296851 853.3246660482373Q833.088256029685 853.3046660482373 833.2582560296851 853.3046660482373L835.058256029685 853.3246660482373Q836.8882560296851 853.3246660482373 837.9682560296851 852.0946660482373Q838.7482560296851 851.2146660482373 838.7482560296851 850.0046660482374Q838.7282560296851 848.4646660482373 837.558256029685 847.5446660482373Q837.7482560296851 846.8846660482372 838.2582560296851 846.7646660482374Q838.338256029685 846.7446660482374 838.4282560296851 846.7446660482374Q838.7082560296851 846.7446660482374 839.038256029685 847.0546660482373Q839.2682560296851 847.2546660482374 839.4482560296851 847.2546660482374Q839.9582560296851 847.1346660482374 840.0482560296851 846.6046660482374Q840.0482560296851 845.9646660482374 839.4482560296851 845.7446660482374Q839.2282560296851 845.6546660482375 838.9982560296851 845.6546660482375Q838.0382560296852 845.6546660482375 837.4382560296851 846.5146660482374Q837.2182560296851 846.8446660482374 837.0882560296851 847.2346660482374Q836.1682560296852 846.7646660482374 835.0982560296851 846.7646660482374M835.0982560296851 859.0546660482374Q833.0682560296851 859.0546660482374 832.538256029685 857.9846660482374Q832.3982560296852 857.6946660482374 832.3982560296852 857.4046660482375Q832.4182560296852 856.8546660482375 832.8882560296852 856.3046660482374Q833.2982560296851 856.3846660482375 833.5682560296851 856.3846660482375L836.7182560296851 856.4246660482374Q838.2582560296851 856.4446660482374 838.5082560296851 857.1246660482375Q838.5682560296851 857.2846660482375 838.5682560296851 857.5346660482375Q838.5682560296851 858.4346660482374 836.8882560296852 858.8446660482375Q836.0682560296851 859.0546660482374 835.0982560296851 859.0546660482374M845.3382560296851 847.2646660482374Q846.7682560296851 847.2646660482374 847.2382560296851 848.4746660482374Q847.4082560296852 848.8646660482374 847.4082560296852 849.3146660482373Q847.4082560296852 850.3446660482373 846.4182560296852 850.5746660482373Q845.9082560296852 850.6746660482374 844.9682560296851 850.6546660482373L842.788256029685 850.5946660482373Q842.8982560296852 848.2346660482374 844.3282560296851 847.5146660482374Q844.7982560296851 847.2646660482374 845.3382560296851 847.2646660482374M848.9082560296852 853.7046660482374L848.3882560296852 853.5246660482373Q847.6782560296851 855.0846660482373 846.0782560296851 855.2846660482373Q845.8682560296852 855.3046660482373 845.6882560296851 855.3046660482373Q843.528256029685 855.3046660482373 842.9782560296851 852.7446660482374Q842.8082560296851 852.0246660482373 842.7882560296852 851.1646660482373L845.2582560296852 851.2046660482374Q847.7582560296852 851.2446660482374 848.4682560296851 850.7346660482374Q849.0282560296852 850.3246660482373 849.0282560296852 849.5646660482373Q849.0282560296852 848.1746660482373 847.6082560296852 847.3546660482373Q846.6082560296852 846.7546660482374 845.2982560296851 846.7546660482374Q842.7282560296851 846.7546660482374 841.6282560296852 848.8846660482372Q841.0482560296851 849.9946660482374 841.0482560296851 851.3946660482372Q841.0482560296851 853.9346660482373 842.8782560296852 855.1646660482372Q843.9582560296851 855.8846660482372 845.3582560296852 855.8846660482372Q847.5682560296851 855.8846660482372 848.6182560296852 854.2846660482373Q848.7782560296852 853.9946660482373 848.9082560296852 853.7046660482373M850.1682560296852 846.9746660482373V847.4846660482373H851.5982560296852V853.2646660482372Q851.7482560296851 855.8346660482373 853.9582560296851 855.9146660482372Q855.8482560296852 855.9146660482372 856.3182560296852 853.5946660482373V853.5546660482372L855.7682560296852 853.4546660482372Q855.2482560296852 855.1546660482372 854.2682560296852 855.2946660482371Q853.1582560296852 855.2546660482371 853.1382560296852 853.7146660482372V847.4846660482372H856.3182560296852V846.9746660482372H853.1382560296852V844.5946660482372L851.5982560296852 845.0246660482371V846.9746660482372ZM861.1682560296852 855.1646660482372H860.1382560296852V850.7346660482373Q860.1382560296852 848.8646660482373 861.4382560296851 848.0246660482373Q861.9682560296851 847.6746660482372 862.5382560296853 847.6746660482372Q863.7882560296853 847.6746660482372 864.2882560296853 848.8446660482373Q864.5082560296853 849.4046660482372 864.5082560296853 850.0746660482373V853.9346660482373Q864.5082560296853 854.8746660482373 864.0582560296853 855.0646660482373Q863.7682560296853 855.1646660482373 863.0782560296852 855.1646660482373V855.6746660482373H867.5882560296852Q867.5882560296852 855.2246660482374 867.2782560296853 855.1846660482373Q867.1982560296852 855.1646660482373 867.0782560296852 855.1646660482373H866.0482560296853V850.0746660482373Q866.0482560296853 847.8446660482373 864.5682560296852 847.0446660482373Q863.9982560296853 846.7546660482374 863.3382560296852 846.7546660482374Q861.8282560296852 846.7546660482374 860.7982560296853 847.8646660482374Q860.3682560296852 848.3346660482374 860.1382560296852 848.9246660482374V842.3446660482374H857.0682560296852V842.8546660482374H858.6082560296852V853.9346660482374Q858.6082560296852 854.8746660482374 858.0682560296852 855.0646660482373Q857.7582560296852 855.1646660482375 857.0682560296852 855.1646660482375V855.6746660482374H861.6782560296851Q861.6782560296851 855.2246660482374 861.3682560296852 855.1846660482374Q861.2882560296853 855.1646660482375 861.1682560296852 855.1646660482375M873.2282560296852 847.2646660482374Q874.6582560296852 847.2646660482374 875.1282560296852 848.4746660482374Q875.2982560296853 848.8646660482374 875.2982560296853 849.3146660482373Q875.2982560296853 850.3446660482373 874.3082560296853 850.5746660482373Q873.7982560296853 850.6746660482374 872.8582560296852 850.6546660482373L870.6782560296851 850.5946660482373Q870.7882560296853 848.2346660482374 872.2182560296852 847.5146660482374Q872.6882560296852 847.2646660482374 873.2282560296852 847.2646660482374M876.7982560296853 853.7046660482374L876.2782560296853 853.5246660482373Q875.5682560296852 855.0846660482373 873.9682560296852 855.2846660482373Q873.7582560296853 855.3046660482373 873.5782560296852 855.3046660482373Q871.4182560296852 855.3046660482373 870.8682560296852 852.7446660482374Q870.7082560296852 852.0246660482373 870.6782560296853 851.1646660482373L873.1482560296853 851.2046660482374Q875.6482560296853 851.2446660482374 876.3682560296853 850.7346660482374Q876.9182560296854 850.3246660482373 876.9182560296854 849.5646660482373Q876.9182560296854 848.1746660482373 875.4982560296853 847.3546660482373Q874.4982560296853 846.7546660482374 873.1882560296854 846.7546660482374Q870.6182560296853 846.7546660482374 869.5182560296853 848.8846660482372Q868.9382560296854 849.9946660482374 868.9382560296854 851.3946660482372Q868.9382560296854 853.9346660482373 870.7682560296853 855.1646660482372Q871.8482560296852 855.8846660482372 873.2482560296853 855.8846660482372Q875.4582560296853 855.8846660482372 876.5082560296853 854.2846660482373Q876.6682560296854 853.9946660482373 876.7982560296853 853.7046660482373M882.8482560296853 855.1746660482373H881.3682560296853V851.0946660482373Q881.3682560296853 849.2246660482374 882.5182560296853 848.0946660482373Q882.9682560296853 847.6646660482373 883.2782560296853 847.6446660482374Q883.6282560296853 847.6446660482374 883.9082560296853 848.1646660482373Q884.2382560296853 848.7346660482374 884.5282560296853 848.8146660482373Q884.6482560296853 848.8546660482373 884.7682560296853 848.8546660482373Q885.3882560296853 848.8546660482373 885.5482560296853 848.2646660482374Q885.5882560296852 848.1346660482374 885.5882560296852 848.0146660482374Q885.5882560296852 847.0946660482373 884.6482560296852 846.8846660482374Q884.4482560296851 846.8446660482373 884.2582560296852 846.8446660482373Q883.0282560296852 846.8446660482373 882.0682560296851 847.8946660482374Q881.6182560296851 848.3846660482374 881.3482560296851 849.0046660482374L881.2682560296851 846.9746660482374H878.288256029685V847.4846660482374H879.828256029685V853.9446660482374Q879.828256029685 854.8846660482374 879.298256029685 855.0746660482373Q878.9882560296851 855.1746660482374 878.288256029685 855.1746660482374V855.6846660482374H883.3582560296851Q883.3582560296851 855.2346660482374 883.0482560296851 855.1946660482374Q882.9682560296851 855.1746660482374 882.8482560296851 855.1746660482374M888.8082560296851 854.7446660482374Q888.8082560296851 854.0646660482373 888.1982560296851 853.7746660482373Q887.9882560296851 853.6746660482373 887.7682560296852 853.6746660482373Q887.0882560296852 853.6746660482373 886.8182560296851 854.2946660482373Q886.7182560296851 854.5146660482374 886.7182560296851 854.7446660482374Q886.7182560296851 855.3946660482372 887.3182560296851 855.6846660482373Q887.5382560296852 855.7846660482373 887.7682560296852 855.7846660482373Q888.4182560296852 855.7846660482373 888.7082560296852 855.1946660482374Q888.8082560296853 854.9646660482374 888.8082560296853 854.7446660482374 "></path><path fill="#fbfbfb" d="M488.06225602968453 688.2896660482375V852.9686660482374H623.2722560296845V848.2686660482375H492.7622560296846V692.9896660482374H1042.1542560296846V848.2686660482374H911.6442560296847V852.9686660482373H1046.8542560296846V688.2896660482375Z "></path></g><rect width="559" height="173" x="470.5" y="663.5" id="space-saver" fill="transparent" stroke="transparent"></rect></g></svg>